<?xml version="1.0" encoding="UTF-8"?>
<svg version="1.1" xmlns="http://www.w3.org/2000/svg" width="48" height="48">
<path d="M0 0 C2.3125 0.1875 2.3125 0.1875 4 1 C3.41604794 4.51149841 2.16720355 6.29031758 -0.3125 8.8125 C-0.90675781 9.43769531 -1.50101563 10.06289063 -2.11328125 10.70703125 C-4 12 -4 12 -6.0859375 11.8125 C-8.76412774 10.67563557 -10.2288517 9.29593299 -12 7 C-11.75 4.75 -11.75 4.75 -11 3 C-9.02 3.66 -7.04 4.32 -5 5 C-4.2575 4.154375 -3.515 3.30875 -2.75 2.4375 C-1.38875 1.2309375 -1.38875 1.2309375 0 0 Z " fill="#3D4FB5" transform="translate(16,31)"/>
<path d="M0 0 C2.3125 0.1875 2.3125 0.1875 4 1 C3.41604794 4.51149841 2.16720355 6.29031758 -0.3125 8.8125 C-0.90675781 9.43769531 -1.50101563 10.06289063 -2.11328125 10.70703125 C-4 12 -4 12 -6.0859375 11.8125 C-8.76412774 10.67563557 -10.2288517 9.29593299 -12 7 C-11.75 4.75 -11.75 4.75 -11 3 C-9.02 3.66 -7.04 4.32 -5 5 C-4.2575 4.154375 -3.515 3.30875 -2.75 2.4375 C-1.38875 1.2309375 -1.38875 1.2309375 0 0 Z " fill="#3D4FB5" transform="translate(16,18)"/>
<path d="M0 0 C2.3125 0.1875 2.3125 0.1875 4 1 C3.41604794 4.51149841 2.16720355 6.29031758 -0.3125 8.8125 C-0.90675781 9.43769531 -1.50101563 10.06289062 -2.11328125 10.70703125 C-4 12 -4 12 -6.0859375 11.8125 C-8.76412774 10.67563557 -10.2288517 9.29593299 -12 7 C-11.75 4.75 -11.75 4.75 -11 3 C-9.02 3.66 -7.04 4.32 -5 5 C-4.2575 4.154375 -3.515 3.30875 -2.75 2.4375 C-1.38875 1.2309375 -1.38875 1.2309375 0 0 Z " fill="#3D4FB5" transform="translate(16,5)"/>
<path d="M0 0 C6.6 0 13.2 0 20 0 C20 1.32 20 2.64 20 4 C13.4 4 6.8 4 0 4 C0 2.68 0 1.36 0 0 Z " fill="#90CAF9" transform="translate(24,35)"/>
<path d="M0 0 C6.6 0 13.2 0 20 0 C20 1.32 20 2.64 20 4 C13.4 4 6.8 4 0 4 C0 2.68 0 1.36 0 0 Z " fill="#90CAF9" transform="translate(24,22)"/>
<path d="M0 0 C6.6 0 13.2 0 20 0 C20 1.32 20 2.64 20 4 C13.4 4 6.8 4 0 4 C0 2.68 0 1.36 0 0 Z " fill="#90CAF9" transform="translate(24,9)"/>
</svg>
