<?xml version="1.0" encoding="UTF-8"?>
<svg version="1.1" xmlns="http://www.w3.org/2000/svg" width="800" height="800">
<path d="M0 0 C4.34772888 3.40006485 8.46341926 6.95612471 12.21484375 11.01171875 C12.73304688 11.51316406 13.25125 12.01460937 13.78515625 12.53125 C17.87614362 16.74148139 20.71960453 21.33575087 23.40234375 26.51171875 C23.72307861 27.10895752 24.04381348 27.70619629 24.37426758 28.3215332 C32.09125472 43.89291965 31.77254478 60.1166471 31.66894531 77.0625 C31.6678152 79.665812 31.66845389 82.26912526 31.67071533 84.87243652 C31.6727987 90.44674441 31.66039717 96.02086301 31.63776398 101.59512329 C31.60506307 109.65423742 31.59481862 117.71326132 31.58981201 125.77243459 C31.58108749 138.85224767 31.5545497 151.93196018 31.51660156 165.01171875 C31.47980744 177.70702618 31.45153206 190.40230616 31.43457031 203.09765625 C31.43351942 203.88201951 31.43246852 204.66638276 31.43138579 205.4745146 C31.42616511 209.40997909 31.4211104 213.34544377 31.41613817 217.28090858 C31.37476481 249.85791848 31.3043946 282.43480509 31.21484375 315.01171875 C31.76950018 315.01019987 32.32415662 315.00868099 32.89562082 315.00711608 C65.82242589 314.91746163 98.74920019 314.84890089 131.67610011 314.80745743 C135.63611772 314.80245504 139.59613509 314.79727771 143.55615234 314.79199219 C144.34446829 314.79094295 145.13278424 314.7898937 145.94498855 314.78881267 C158.68297501 314.77144204 171.42088872 314.73992293 184.15883213 314.70310757 C197.24444845 314.66560483 210.33002686 314.64346325 223.41569471 314.63536477 C231.48004353 314.62989627 239.54418666 314.61267077 247.60847211 314.58005288 C253.80859919 314.55626361 260.00857185 314.55392231 266.20873833 314.55928802 C268.7401957 314.55819326 271.27166131 314.55031296 273.80307198 314.53489685 C300.10535697 314.3826596 319.27084885 318.75388574 338.90234375 337.32421875 C353.07495707 351.92176051 358.7795108 371.1137671 358.63208008 391.06665039 C358.07550255 410.64518673 350.24289354 428.21553756 336.21484375 442.01171875 C318.83292213 456.78275445 299.75969468 462.19949268 277.25558472 462.13197327 C276.19756751 462.13282769 275.13955031 462.13368212 274.04947197 462.13456243 C270.5288947 462.13620042 267.00836581 462.13072354 263.48779297 462.12524414 C260.95433046 462.12496188 258.42086786 462.12512076 255.8874054 462.12568665 C250.44566108 462.12591385 245.00393216 462.12309024 239.56219101 462.11744881 C231.69449421 462.10929773 223.82680321 462.1067149 215.95910265 462.10546082 C203.19213284 462.10327595 190.42516945 462.09663123 177.65820312 462.0871582 C165.26139355 462.07796943 152.86458573 462.07089577 140.46777344 462.06665039 C139.70274281 462.06638767 138.93771218 462.06612494 138.14949881 462.06585426 C134.31129885 462.06454916 130.47309888 462.06328546 126.6348989 462.06204236 C94.82820915 462.05168736 63.02152745 462.03400977 31.21484375 462.01171875 C31.21636263 462.56214324 31.21788151 463.11256774 31.21944642 463.67967176 C31.30910279 496.35596402 31.37766257 529.03222352 31.41910507 561.70861056 C31.42410745 565.63858563 31.42928478 569.56856046 31.43457031 573.49853516 C31.43561955 574.28086987 31.4366688 575.06320459 31.43774983 575.86924642 C31.45512 588.51023529 31.48663884 601.15115084 31.52345493 613.79209632 C31.56095897 626.77827151 31.58309953 639.7644085 31.59119773 652.75063562 C31.59666597 660.7535662 31.61388998 668.7562895 31.64650962 676.75915623 C31.67030086 682.91228152 31.67263986 689.06525122 31.66727448 695.21841621 C31.66836915 697.73052299 31.6762482 700.24263809 31.69166565 702.7546978 C31.78685327 719.07343058 31.42148956 734.57415026 23.52734375 749.32421875 C23.18340576 749.98244629 22.83946777 750.64067383 22.48510742 751.31884766 C13.47307572 767.97739013 -0.49399733 778.23087212 -17.78515625 785.01171875 C-19.15800781 785.553125 -19.15800781 785.553125 -20.55859375 786.10546875 C-37.75385662 791.55147576 -58.69999388 789.12397597 -74.64526367 781.27685547 C-91.8029948 772.35577931 -104.64394547 758.73972333 -111.06602764 740.32708931 C-115.40323376 726.36263396 -115.19251757 712.86853321 -115.12573242 698.37158203 C-115.1248851 695.78826914 -115.12536334 693.20495554 -115.12705994 690.62164307 C-115.12862419 685.08443946 -115.11930451 679.54734286 -115.10234642 674.01016617 C-115.07784479 666.00460269 -115.07013981 657.99909033 -115.06638245 649.99349342 C-115.05983536 637.00132966 -115.03992179 624.00922277 -115.01147461 611.01708984 C-114.98388872 598.40511355 -114.96267739 585.79315277 -114.94995117 573.18115234 C-114.949163 572.40223763 -114.94837483 571.62332292 -114.94756278 570.82080473 C-114.94364734 566.91276704 -114.93985629 563.00472924 -114.93612707 559.09669137 C-114.90508549 526.73499251 -114.85229753 494.37336356 -114.78515625 462.01171875 C-115.33058936 462.01323763 -115.87602248 462.01475651 -116.43798387 462.01632142 C-148.830486 462.10601172 -181.22295501 462.1745546 -213.61555286 462.21598007 C-217.51290785 462.22098235 -221.41026258 462.22615969 -225.30761719 462.23144531 C-226.08344606 462.23249455 -226.85927492 462.2335438 -227.65861376 462.23462483 C-240.18832095 462.25198677 -252.71795404 462.28350099 -265.24761741 462.32032993 C-278.123061 462.35785704 -290.99846602 462.37997935 -303.87396204 462.38807273 C-311.80625602 462.39353623 -319.73834049 462.41073401 -327.67056991 462.44338462 C-333.77323253 462.46721079 -339.87573847 462.46950914 -345.97844124 462.46414948 C-348.46713226 462.46524251 -350.95583182 462.47309922 -353.44447517 462.48854065 C-378.83363818 462.63823788 -401.86556592 459.54090484 -420.78515625 441.01171875 C-436.88197865 423.81622435 -442.51766871 404.77703992 -442.08984375 381.71875 C-441.32529858 362.5261389 -432.22152381 347.10199806 -418.78515625 334.01171875 C-418.2025 333.42003906 -417.61984375 332.82835937 -417.01953125 332.21875 C-403.34077733 319.33446916 -385.21295113 314.83844832 -366.95887756 314.89146423 C-365.87892232 314.89060981 -364.79896707 314.88975538 -363.68628591 314.88887507 C-360.07347378 314.8872301 -356.46070824 314.89272558 -352.84790039 314.89819336 C-350.25576783 314.89847547 -347.6636352 314.89831703 -345.07150269 314.89775085 C-339.49383628 314.89722728 -333.9161816 314.90035671 -328.33851814 314.90598869 C-320.27421883 314.91412621 -312.20992516 314.91672122 -304.14562219 314.91797668 C-291.06086405 314.92016366 -277.97611217 314.92681416 -264.89135742 314.9362793 C-252.18302441 314.94546257 -239.47469309 314.95253893 -226.76635742 314.95678711 C-225.59074626 314.95718119 -225.59074626 314.95718119 -224.39138538 314.95758324 C-220.4594691 314.95888831 -216.5275528 314.96015201 -212.59563649 314.96139514 C-179.99213853 314.97175673 -147.38864823 314.98936543 -114.78515625 315.01171875 C-114.78667513 314.45917829 -114.78819401 313.90663782 -114.78975892 313.33735371 C-114.87941432 280.53580546 -114.94797459 247.73428812 -114.98941757 214.93264467 C-114.99441995 210.98764832 -114.99959729 207.04265222 -115.00488281 203.09765625 C-115.00593205 202.31233092 -115.0069813 201.52700558 -115.00806233 200.71788251 C-115.02543273 188.02839485 -115.05695171 175.33898022 -115.09376743 162.64953578 C-115.13127081 149.61364002 -115.15341189 136.57778232 -115.16151023 123.54183483 C-115.1669786 115.50819514 -115.18420336 107.47476192 -115.21682212 99.44118583 C-115.24061237 93.26455965 -115.24295253 87.08808847 -115.23758698 80.91142273 C-115.23868169 78.38964065 -115.24656137 75.8678503 -115.26197815 73.34611511 C-115.35664885 57.05285043 -114.98106906 41.5417919 -107.22265625 26.76171875 C-106.8882251 26.10896973 -106.55379395 25.4562207 -106.20922852 24.78369141 C-102.46704983 17.86087226 -97.4345168 12.42285325 -91.78515625 7.01171875 C-91.15609375 6.398125 -90.52703125 5.78453125 -89.87890625 5.15234375 C-66.01775461 -16.68286105 -26.19217395 -18.69819991 0 0 Z " fill="#FFFFFF" transform="translate(441.78515625,11.98828125)"/>
</svg>
